<svg width="200" height="210" viewBox="0 0 200 210" fill="none" xmlns="http://www.w3.org/2000/svg">
<g clip-path="url(#clip0_228_2940)">
<path d="M58.8625 38.108L72.5377 0H121.768L74.589 125.861H25.7001L42.1104 80.7609H-1.99219L14.0762 38.108H58.8625Z" fill="#0093DD"/>
<path d="M141.137 97.892L127.462 136H78.2315L125.411 10.1388H174.3L157.89 55.2391H201.992L185.924 97.892H141.137Z" fill="#33CC91"/>
<path d="M133.754 50.5618C133.754 69.4843 112.557 118.737 100.249 118.737C87.9417 118.737 66.7451 69.4843 66.7451 50.5618C66.7451 31.6393 81.7455 16.2996 100.249 16.2996C118.753 16.2996 133.754 31.6393 133.754 50.5618Z" fill="#FF6638"/>
<ellipse cx="100.25" cy="49.1633" rx="15.0427" ry="15.383" fill="white"/>
</g>
<path d="M27.0156 196.887V201H14.1309V196.887H27.0156ZM15.8359 175.406V201H10.5625V175.406H15.8359ZM28.9141 191.684V191.314C28.9141 189.92 29.1133 188.637 29.5117 187.465C29.9102 186.281 30.4902 185.256 31.252 184.389C32.0137 183.521 32.9512 182.848 34.0645 182.367C35.1777 181.875 36.4551 181.629 37.8965 181.629C39.3379 181.629 40.6211 181.875 41.7461 182.367C42.8711 182.848 43.8145 183.521 44.5762 184.389C45.3496 185.256 45.9355 186.281 46.334 187.465C46.7324 188.637 46.9316 189.92 46.9316 191.314V191.684C46.9316 193.066 46.7324 194.35 46.334 195.533C45.9355 196.705 45.3496 197.73 44.5762 198.609C43.8145 199.477 42.877 200.15 41.7637 200.631C40.6504 201.111 39.373 201.352 37.9316 201.352C36.4902 201.352 35.207 201.111 34.082 200.631C32.9688 200.15 32.0254 199.477 31.252 198.609C30.4902 197.73 29.9102 196.705 29.5117 195.533C29.1133 194.35 28.9141 193.066 28.9141 191.684ZM33.9766 191.314V191.684C33.9766 192.48 34.0469 193.225 34.1875 193.916C34.3281 194.607 34.5508 195.217 34.8555 195.744C35.1719 196.26 35.582 196.664 36.0859 196.957C36.5898 197.25 37.2051 197.396 37.9316 197.396C38.6348 197.396 39.2383 197.25 39.7422 196.957C40.2461 196.664 40.6504 196.26 40.9551 195.744C41.2598 195.217 41.4824 194.607 41.623 193.916C41.7754 193.225 41.8516 192.48 41.8516 191.684V191.314C41.8516 190.541 41.7754 189.814 41.623 189.135C41.4824 188.443 41.2539 187.834 40.9375 187.307C40.6328 186.768 40.2285 186.346 39.7246 186.041C39.2207 185.736 38.6113 185.584 37.8965 185.584C37.1816 185.584 36.5723 185.736 36.0684 186.041C35.5762 186.346 35.1719 186.768 34.8555 187.307C34.5508 187.834 34.3281 188.443 34.1875 189.135C34.0469 189.814 33.9766 190.541 33.9766 191.314ZM57.9004 197.396C58.5215 197.396 59.0723 197.279 59.5527 197.045C60.0332 196.799 60.4082 196.459 60.6777 196.025C60.959 195.58 61.1055 195.059 61.1172 194.461H65.8809C65.8691 195.797 65.5117 196.986 64.8086 198.029C64.1055 199.061 63.1621 199.875 61.9785 200.473C60.7949 201.059 59.4707 201.352 58.0059 201.352C56.5293 201.352 55.2402 201.105 54.1387 200.613C53.0488 200.121 52.1406 199.441 51.4141 198.574C50.6875 197.695 50.1426 196.676 49.7793 195.516C49.416 194.344 49.2344 193.09 49.2344 191.754V191.244C49.2344 189.896 49.416 188.643 49.7793 187.482C50.1426 186.311 50.6875 185.291 51.4141 184.424C52.1406 183.545 53.0488 182.859 54.1387 182.367C55.2285 181.875 56.5059 181.629 57.9707 181.629C59.5293 181.629 60.8945 181.928 62.0664 182.525C63.25 183.123 64.1758 183.979 64.8438 185.092C65.5234 186.193 65.8691 187.5 65.8809 189.012H61.1172C61.1055 188.379 60.9707 187.805 60.7129 187.289C60.4668 186.773 60.1035 186.363 59.623 186.059C59.1543 185.742 58.5742 185.584 57.8828 185.584C57.1445 185.584 56.541 185.742 56.0723 186.059C55.6035 186.363 55.2402 186.785 54.9824 187.324C54.7246 187.852 54.543 188.455 54.4375 189.135C54.3438 189.803 54.2969 190.506 54.2969 191.244V191.754C54.2969 192.492 54.3438 193.201 54.4375 193.881C54.5312 194.561 54.707 195.164 54.9648 195.691C55.2344 196.219 55.6035 196.635 56.0723 196.939C56.541 197.244 57.1504 197.396 57.9004 197.396ZM79.082 196.711V188.238C79.082 187.629 78.9824 187.107 78.7832 186.674C78.584 186.229 78.2734 185.883 77.8516 185.637C77.4414 185.391 76.9082 185.268 76.252 185.268C75.6895 185.268 75.2031 185.367 74.793 185.566C74.3828 185.754 74.0664 186.029 73.8438 186.393C73.6211 186.744 73.5098 187.16 73.5098 187.641H68.4473C68.4473 186.832 68.6348 186.064 69.0098 185.338C69.3848 184.611 69.9297 183.973 70.6445 183.422C71.3594 182.859 72.209 182.42 73.1934 182.104C74.1895 181.787 75.3027 181.629 76.5332 181.629C78.0098 181.629 79.3223 181.875 80.4707 182.367C81.6191 182.859 82.5215 183.598 83.1777 184.582C83.8457 185.566 84.1797 186.797 84.1797 188.273V196.412C84.1797 197.455 84.2441 198.311 84.373 198.979C84.502 199.635 84.6895 200.209 84.9355 200.701V201H79.8203C79.5742 200.484 79.3867 199.84 79.2578 199.066C79.1406 198.281 79.082 197.496 79.082 196.711ZM79.75 189.416L79.7852 192.281H76.9551C76.2871 192.281 75.707 192.357 75.2148 192.51C74.7227 192.662 74.3184 192.879 74.002 193.16C73.6855 193.43 73.4512 193.746 73.2988 194.109C73.1582 194.473 73.0879 194.871 73.0879 195.305C73.0879 195.738 73.1875 196.131 73.3867 196.482C73.5859 196.822 73.873 197.092 74.248 197.291C74.623 197.479 75.0625 197.572 75.5664 197.572C76.3281 197.572 76.9902 197.42 77.5527 197.115C78.1152 196.811 78.5488 196.436 78.8535 195.99C79.1699 195.545 79.334 195.123 79.3457 194.725L80.6816 196.869C80.4941 197.35 80.2363 197.848 79.9082 198.363C79.5918 198.879 79.1875 199.365 78.6953 199.822C78.2031 200.268 77.6113 200.637 76.9199 200.93C76.2285 201.211 75.4082 201.352 74.459 201.352C73.252 201.352 72.1562 201.111 71.1719 200.631C70.1992 200.139 69.4258 199.465 68.8516 198.609C68.2891 197.742 68.0078 196.758 68.0078 195.656C68.0078 194.66 68.1953 193.775 68.5703 193.002C68.9453 192.229 69.4961 191.578 70.2227 191.051C70.9609 190.512 71.8809 190.107 72.9824 189.838C74.084 189.557 75.3613 189.416 76.8145 189.416H79.75ZM93.4258 174V201H88.3457V174H93.4258ZM102.953 181.98V201H97.873V181.98H102.953ZM97.5566 177.023C97.5566 176.285 97.8145 175.676 98.3301 175.195C98.8457 174.715 99.5371 174.475 100.404 174.475C101.26 174.475 101.945 174.715 102.461 175.195C102.988 175.676 103.252 176.285 103.252 177.023C103.252 177.762 102.988 178.371 102.461 178.852C101.945 179.332 101.26 179.572 100.404 179.572C99.5371 179.572 98.8457 179.332 98.3301 178.852C97.8145 178.371 97.5566 177.762 97.5566 177.023ZM122.271 197.045V201H107.822V197.045H122.271ZM121.99 184.898L109.861 201H106.469V197.994L118.545 181.98H121.99V184.898ZM120.197 181.98V185.953H106.75V181.98H120.197ZM135.719 196.711V188.238C135.719 187.629 135.619 187.107 135.42 186.674C135.221 186.229 134.91 185.883 134.488 185.637C134.078 185.391 133.545 185.268 132.889 185.268C132.326 185.268 131.84 185.367 131.43 185.566C131.02 185.754 130.703 186.029 130.48 186.393C130.258 186.744 130.146 187.16 130.146 187.641H125.084C125.084 186.832 125.271 186.064 125.646 185.338C126.021 184.611 126.566 183.973 127.281 183.422C127.996 182.859 128.846 182.42 129.83 182.104C130.826 181.787 131.939 181.629 133.17 181.629C134.646 181.629 135.959 181.875 137.107 182.367C138.256 182.859 139.158 183.598 139.814 184.582C140.482 185.566 140.816 186.797 140.816 188.273V196.412C140.816 197.455 140.881 198.311 141.01 198.979C141.139 199.635 141.326 200.209 141.572 200.701V201H136.457C136.211 200.484 136.023 199.84 135.895 199.066C135.777 198.281 135.719 197.496 135.719 196.711ZM136.387 189.416L136.422 192.281H133.592C132.924 192.281 132.344 192.357 131.852 192.51C131.359 192.662 130.955 192.879 130.639 193.16C130.322 193.43 130.088 193.746 129.936 194.109C129.795 194.473 129.725 194.871 129.725 195.305C129.725 195.738 129.824 196.131 130.023 196.482C130.223 196.822 130.51 197.092 130.885 197.291C131.26 197.479 131.699 197.572 132.203 197.572C132.965 197.572 133.627 197.42 134.189 197.115C134.752 196.811 135.186 196.436 135.49 195.99C135.807 195.545 135.971 195.123 135.982 194.725L137.318 196.869C137.131 197.35 136.873 197.848 136.545 198.363C136.229 198.879 135.824 199.365 135.332 199.822C134.84 200.268 134.248 200.637 133.557 200.93C132.865 201.211 132.045 201.352 131.096 201.352C129.889 201.352 128.793 201.111 127.809 200.631C126.836 200.139 126.062 199.465 125.488 198.609C124.926 197.742 124.645 196.758 124.645 195.656C124.645 194.66 124.832 193.775 125.207 193.002C125.582 192.229 126.133 191.578 126.859 191.051C127.598 190.512 128.518 190.107 129.619 189.838C130.721 189.557 131.998 189.416 133.451 189.416H136.387Z" fill="#0093DD"/>
<path d="M162.104 185.83V189.943H148.744V185.83H162.104ZM150.309 175.406V201H145.035V175.406H150.309ZM165.865 175.406V201H160.609V175.406H165.865ZM185.289 192.51H190.545C190.439 194.232 189.965 195.762 189.121 197.098C188.289 198.434 187.123 199.477 185.623 200.227C184.135 200.977 182.342 201.352 180.244 201.352C178.604 201.352 177.133 201.07 175.832 200.508C174.531 199.934 173.418 199.113 172.492 198.047C171.578 196.98 170.881 195.691 170.4 194.18C169.92 192.668 169.68 190.975 169.68 189.1V187.324C169.68 185.449 169.926 183.756 170.418 182.244C170.922 180.721 171.637 179.426 172.562 178.359C173.5 177.293 174.619 176.473 175.92 175.898C177.221 175.324 178.674 175.037 180.279 175.037C182.412 175.037 184.211 175.424 185.676 176.197C187.152 176.971 188.295 178.037 189.104 179.396C189.924 180.756 190.416 182.303 190.58 184.037H185.307C185.248 183.006 185.043 182.133 184.691 181.418C184.34 180.691 183.807 180.146 183.092 179.783C182.389 179.408 181.451 179.221 180.279 179.221C179.4 179.221 178.633 179.385 177.977 179.713C177.32 180.041 176.77 180.539 176.324 181.207C175.879 181.875 175.545 182.719 175.322 183.738C175.111 184.746 175.006 185.93 175.006 187.289V189.1C175.006 190.424 175.105 191.59 175.305 192.598C175.504 193.594 175.809 194.438 176.219 195.129C176.641 195.809 177.18 196.324 177.836 196.676C178.504 197.016 179.307 197.186 180.244 197.186C181.346 197.186 182.254 197.01 182.969 196.658C183.684 196.307 184.229 195.785 184.604 195.094C184.99 194.402 185.219 193.541 185.289 192.51Z" fill="#33CC91"/>
<defs>
<clipPath id="clip0_228_2940">
<rect width="200" height="136" fill="white"/>
</clipPath>
</defs>
</svg>
