<svg width="200" height="136" viewBox="0 0 200 136" fill="none" xmlns="http://www.w3.org/2000/svg">
<g clip-path="url(#clip0_7_528)">
<path d="M58.8625 38.108L72.5377 0H121.768L74.589 125.861H25.7001L42.1104 80.7609H-1.99219L14.0762 38.108H58.8625Z" fill="#0093DD"/>
<path d="M141.137 97.892L127.462 136H78.2315L125.411 10.1388H174.3L157.89 55.2391H201.992L185.924 97.892H141.137Z" fill="#33CC91"/>
<path d="M133.754 50.5618C133.754 69.4843 112.557 118.737 100.249 118.737C87.9417 118.737 66.7451 69.4843 66.7451 50.5618C66.7451 31.6393 81.7455 16.2996 100.249 16.2996C118.753 16.2996 133.754 31.6393 133.754 50.5618Z" fill="#FF6638"/>
<ellipse cx="100.25" cy="49.1633" rx="15.0427" ry="15.383" fill="white"/>
</g>
<defs>
<clipPath id="clip0_7_528">
<rect width="200" height="136" fill="white"/>
</clipPath>
</defs>
</svg>
